<?xml version="1.0" encoding="utf-8"?>
<!-- Generator: Adobe Illustrator 23.0.3, SVG Export Plug-In . SVG Version: 6.00 Build 0)  -->
<svg version="1.1" id="Layer_1" xmlns="http://www.w3.org/2000/svg" xmlns:xlink="http://www.w3.org/1999/xlink" x="0px" y="0px"
	 viewBox="0 0 311.9 80.9" enable-background="new 0 0 311.9 80.9" xml:space="preserve">
<g>
	<g>
		<path fill="#FFFFFF" d="M71.4,75.5h-1.7l-4.4-6.9L64,69.9v5.6h-1.4V61.2H64v7.1l5.5-7.1h1.7l-4.9,6.2L71.4,75.5z"/>
		<path fill="#FFFFFF" d="M74.5,64.8v6.9c0,0.9,0.2,1.5,0.5,2s0.9,0.6,1.6,0.6c1,0,1.6-0.3,2.1-0.9s0.7-1.6,0.7-3v-5.6h1.4v10.7
			h-1.1L79.3,74h-0.1c-0.3,0.5-0.7,0.9-1.2,1.2c-0.5,0.3-1.1,0.4-1.7,0.4c-1.1,0-1.9-0.3-2.5-0.9c-0.6-0.6-0.8-1.6-0.8-3v-7H74.5z"
			/>
		<path fill="#FFFFFF" d="M90.2,75.5v-6.9c0-0.9-0.2-1.5-0.5-2c-0.3-0.4-0.9-0.6-1.6-0.6c-1,0-1.6,0.3-2.1,0.9
			c-0.4,0.6-0.7,1.6-0.7,3v5.6h-1.4V64.8h1.1l0.2,1.5h0.1c0.3-0.5,0.7-0.9,1.2-1.2c0.5-0.3,1.1-0.4,1.7-0.4c1.1,0,1.9,0.3,2.5,0.9
			c0.6,0.6,0.8,1.6,0.8,3v7H90.2z"/>
		<path fill="#FFFFFF" d="M100.9,75.5v-6.9c0-0.9-0.2-1.5-0.5-2S99.6,66,98.8,66c-1,0-1.6,0.3-2.1,0.9s-0.7,1.6-0.7,3v5.6h-1.4V64.8
			h1.1l0.2,1.5h0.1c0.3-0.5,0.7-0.9,1.2-1.2s1.1-0.4,1.7-0.4c1.1,0,1.9,0.3,2.5,0.9s0.8,1.6,0.8,3v7H100.9z"/>
		<path fill="#FFFFFF" d="M111.4,72.6c0,1-0.3,1.8-0.9,2.3s-1.5,0.8-2.7,0.8c-1.2,0-2.1-0.2-2.8-0.7v-1.5c0.4,0.3,0.9,0.5,1.4,0.6
			c0.5,0.1,1,0.2,1.4,0.2c0.7,0,1.3-0.1,1.7-0.4s0.6-0.7,0.6-1.2c0-0.4-0.2-0.8-0.5-1.1s-0.9-0.6-1.8-1c-0.8-0.4-1.4-0.7-1.8-1
			s-0.6-0.6-0.8-0.9s-0.3-0.8-0.3-1.3c0-0.9,0.3-1.6,0.9-2.1s1.4-0.8,2.5-0.8c1,0,1.9,0.2,2.9,0.7l-0.5,1.3
			c-0.9-0.4-1.7-0.7-2.5-0.7c-0.7,0-1.1,0.1-1.5,0.4s-0.5,0.6-0.5,1c0,0.3,0.1,0.5,0.2,0.7s0.3,0.4,0.6,0.6s0.8,0.4,1.6,0.8
			c1.1,0.5,1.8,0.9,2.2,1.4C111.2,71.3,111.4,71.9,111.4,72.6z"/>
		<path fill="#FFFFFF" d="M115.3,70c0.2-0.4,0.6-0.9,1.1-1.6l2.9-3.7h1.6l-3.7,4.6l3.9,6.1h-1.7l-3.2-5.1l-1,1.1v4h-1.4V60.3h1.4
			v8.1C115.3,68.7,115.3,69.3,115.3,70L115.3,70z"/>
		<path fill="#FFFFFF" d="M128.8,75.5l-0.3-1.5h-0.1c-0.5,0.7-0.9,1.1-1.4,1.4c-0.5,0.2-1,0.4-1.7,0.4c-0.9,0-1.6-0.3-2.1-0.8
			c-0.5-0.5-0.8-1.3-0.8-2.3c0-2.2,1.5-3.3,4.4-3.4l1.5-0.1v-0.7c0-0.8-0.2-1.5-0.5-1.9c-0.3-0.4-0.8-0.6-1.5-0.6
			c-0.8,0-1.6,0.3-2.6,0.8l-0.4-1.2c0.4-0.3,0.9-0.5,1.5-0.7c0.5-0.2,1.1-0.2,1.6-0.2c1.1,0,1.9,0.3,2.4,0.8s0.8,1.5,0.8,2.7v7.3
			H128.8z M125.7,74.3c0.9,0,1.5-0.3,2-0.8c0.5-0.6,0.7-1.3,0.7-2.3v-1l-1.4,0.1c-1.1,0-1.9,0.2-2.4,0.6c-0.5,0.4-0.7,0.9-0.7,1.7
			c0,0.6,0.2,1,0.5,1.3C124.7,74.2,125.1,74.3,125.7,74.3z"/>
		<path fill="#FFFFFF" d="M137.2,75.7c-0.6,0-1.1-0.1-1.6-0.4s-0.9-0.7-1.2-1.2h-0.1c0.1,0.6,0.1,1.2,0.1,1.8v4.4H133V64.8h1.1
			l0.2,1.5h0.1c0.4-0.6,0.8-1,1.2-1.3s1-0.4,1.6-0.4c1.2,0,2.1,0.5,2.8,1.5s1,2.3,1,4.1c0,1.8-0.3,3.1-1,4.1
			C139.3,75.2,138.4,75.7,137.2,75.7z M137,66c-0.9,0-1.6,0.3-2,0.9s-0.6,1.6-0.6,2.9v0.4c0,1.5,0.2,2.6,0.6,3.2s1.1,1,2.1,1
			c0.8,0,1.4-0.4,1.8-1.1c0.4-0.7,0.7-1.8,0.7-3.1c0-1.3-0.2-2.4-0.7-3.1C138.5,66.3,137.8,66,137,66z"/>
		<path fill="#FFFFFF" d="M152.6,66h-2.3v9.4h-1.4V66h-1.6v-0.7l1.6-0.6v-0.6c0-2.6,1-3.9,2.9-3.9c0.5,0,1,0.1,1.7,0.3l-0.4,1.3
			c-0.5-0.2-1-0.3-1.4-0.3c-0.5,0-0.9,0.2-1.2,0.6s-0.4,1.1-0.4,2v0.7h2.3V66z"/>
		<path fill="#FFFFFF" d="M162.5,70.1c0,1.7-0.4,3.1-1.1,4.1s-1.8,1.5-3.1,1.5c-0.8,0-1.5-0.2-2.2-0.7s-1.1-1.1-1.5-1.9
			s-0.5-1.8-0.5-2.9c0-1.7,0.4-3.1,1.1-4.1s1.8-1.5,3.1-1.5c1.3,0,2.3,0.5,3,1.5C162.1,67.1,162.5,68.4,162.5,70.1z M155.5,70.1
			c0,1.4,0.2,2.4,0.7,3.1s1.1,1.1,2.1,1.1s1.6-0.4,2.1-1.1c0.5-0.7,0.7-1.8,0.7-3.1c0-1.4-0.2-2.4-0.7-3.1c-0.5-0.7-1.2-1.1-2.1-1.1
			c-0.9,0-1.6,0.3-2,1S155.5,68.7,155.5,70.1z"/>
		<path fill="#FFFFFF" d="M169.4,64.6c0.4,0,0.8,0,1.1,0.1l-0.2,1.5c-0.4-0.1-0.7-0.1-1-0.1c-0.7,0-1.4,0.4-1.9,1.1
			s-0.8,1.6-0.8,2.6v5.7h-1.4V64.8h1.1l0.2,2h0.1c0.3-0.7,0.7-1.2,1.2-1.6C168.3,64.8,168.8,64.6,169.4,64.6z"/>
		<path fill="#FFFFFF" d="M181.1,75.7c-1.3,0-2.4-0.5-3.2-1.4c-0.8-1-1.2-2.3-1.2-4c0-1.7,0.4-3.1,1.1-4.1s1.7-1.5,2.9-1.5
			c1.1,0,2,0.4,2.7,1.3s1,2,1,3.5v1h-6.3c0,1.3,0.3,2.2,0.8,2.9c0.5,0.7,1.2,1,2.2,1c1,0,1.9-0.2,2.9-0.7V75
			c-0.5,0.2-0.9,0.4-1.4,0.5C182.2,75.6,181.7,75.7,181.1,75.7z M180.7,65.9c-0.7,0-1.3,0.3-1.7,0.8c-0.4,0.6-0.7,1.3-0.8,2.3h4.8
			c0-1-0.2-1.8-0.6-2.3S181.4,65.9,180.7,65.9z"/>
		<path fill="#FFFFFF" d="M193.4,75.5v-6.9c0-0.9-0.2-1.5-0.5-2c-0.3-0.4-0.9-0.6-1.6-0.6c-1,0-1.6,0.3-2.1,0.9
			c-0.4,0.6-0.7,1.6-0.7,3v5.6h-1.4V64.8h1.1l0.2,1.5h0.1c0.3-0.5,0.7-0.9,1.2-1.2c0.5-0.3,1.1-0.4,1.7-0.4c1.1,0,1.9,0.3,2.5,0.9
			c0.6,0.6,0.8,1.6,0.8,3v7H193.4z"/>
		<path fill="#FFFFFF" d="M206.9,64.6c1.2,0,2.1,0.5,2.8,1.4c0.7,1,1,2.3,1,4.1s-0.3,3.1-1,4.1c-0.7,1-1.6,1.5-2.8,1.5
			c-0.6,0-1.1-0.1-1.6-0.4s-0.9-0.7-1.2-1.2h-0.1l-0.3,1.4h-1V60.3h1.4V64c0,0.8,0,1.6-0.1,2.2h0.1
			C204.7,65.1,205.6,64.6,206.9,64.6z M206.7,66c-0.9,0-1.6,0.3-2,1s-0.6,1.7-0.6,3.2s0.2,2.6,0.6,3.2s1.1,1,2.1,1
			c0.8,0,1.5-0.4,1.9-1.1s0.6-1.8,0.6-3.1c0-1.4-0.2-2.4-0.6-3.1S207.6,66,206.7,66z"/>
		<path fill="#FFFFFF" d="M217.3,75.7c-1.3,0-2.4-0.5-3.2-1.4c-0.8-1-1.2-2.3-1.2-4c0-1.7,0.4-3.1,1.1-4.1s1.7-1.5,2.9-1.5
			c1.1,0,2,0.4,2.7,1.3s1,2,1,3.5v1h-6.3c0,1.3,0.3,2.2,0.8,2.9s1.2,1,2.2,1c1,0,1.9-0.2,2.9-0.7V75c-0.5,0.2-0.9,0.4-1.4,0.5
			S217.9,75.7,217.3,75.7z M216.9,65.9c-0.7,0-1.3,0.3-1.7,0.8c-0.4,0.6-0.7,1.3-0.8,2.3h4.8c0-1-0.2-1.8-0.6-2.3
			C218.2,66.2,217.6,65.9,216.9,65.9z"/>
		<path fill="#FFFFFF" d="M229.5,74L229.5,74c-0.7,1.1-1.7,1.6-2.9,1.6c-1.2,0-2.1-0.5-2.8-1.4s-1-2.3-1-4.1s0.3-3.1,1-4.1
			s1.6-1.5,2.8-1.5c1.2,0,2.2,0.5,2.8,1.6h0.1l-0.1-0.8l0-0.8v-4.4h1.4v15.2h-1.1L229.5,74z M226.7,74.3c0.9,0,1.6-0.3,2-0.9
			s0.6-1.6,0.6-2.9v-0.3c0-1.5-0.2-2.6-0.6-3.2s-1.1-1-2.1-1c-0.8,0-1.4,0.4-1.9,1.1s-0.6,1.8-0.6,3.1c0,1.4,0.2,2.4,0.6,3.1
			C225.3,74,225.9,74.3,226.7,74.3z"/>
		<path fill="#FFFFFF" d="M238.2,64.6c0.4,0,0.8,0,1.1,0.1l-0.2,1.5c-0.4-0.1-0.7-0.1-1-0.1c-0.7,0-1.4,0.4-1.9,1.1
			s-0.8,1.6-0.8,2.6v5.7H234V64.8h1.1l0.2,2h0.1c0.3-0.7,0.7-1.2,1.2-1.6S237.6,64.6,238.2,64.6z"/>
		<path fill="#FFFFFF" d="M245.2,75.7c-1.3,0-2.4-0.5-3.2-1.4c-0.8-1-1.2-2.3-1.2-4c0-1.7,0.4-3.1,1.1-4.1s1.7-1.5,2.9-1.5
			c1.1,0,2,0.4,2.7,1.3s1,2,1,3.5v1h-6.3c0,1.3,0.3,2.2,0.8,2.9c0.5,0.7,1.2,1,2.2,1c1,0,1.9-0.2,2.9-0.7V75
			c-0.5,0.2-0.9,0.4-1.4,0.5C246.3,75.6,245.8,75.7,245.2,75.7z M244.8,65.9c-0.7,0-1.3,0.3-1.7,0.8c-0.4,0.6-0.7,1.3-0.8,2.3h4.8
			c0-1-0.2-1.8-0.6-2.3C246.1,66.2,245.5,65.9,244.8,65.9z"/>
		<path fill="#FFFFFF" d="M258,75.5l-3.5-10.7h1.5l2,6.3c0.4,1.5,0.7,2.4,0.8,2.9h0.1c0.1-0.3,0.3-1.1,0.6-2.1s1-3.4,2.2-7.1h1.5
			l-3.5,10.7H258z"/>
		<path fill="#FFFFFF" d="M268.7,75.7c-1.3,0-2.4-0.5-3.2-1.4c-0.8-1-1.2-2.3-1.2-4c0-1.7,0.4-3.1,1.1-4.1s1.7-1.5,2.9-1.5
			c1.1,0,2,0.4,2.7,1.3s1,2,1,3.5v1h-6.3c0,1.3,0.3,2.2,0.8,2.9c0.5,0.7,1.2,1,2.2,1c1,0,1.9-0.2,2.9-0.7V75
			c-0.5,0.2-0.9,0.4-1.4,0.5C269.8,75.6,269.3,75.7,268.7,75.7z M268.3,65.9c-0.7,0-1.3,0.3-1.7,0.8c-0.4,0.6-0.7,1.3-0.8,2.3h4.8
			c0-1-0.2-1.8-0.6-2.3C269.6,66.2,269,65.9,268.3,65.9z"/>
		<path fill="#FFFFFF" d="M278.8,64.6c0.4,0,0.8,0,1.1,0.1l-0.2,1.5c-0.4-0.1-0.7-0.1-1-0.1c-0.7,0-1.4,0.4-1.9,1.1
			s-0.8,1.6-0.8,2.6v5.7h-1.4V64.8h1.1l0.2,2h0.1c0.3-0.7,0.7-1.2,1.2-1.6C277.8,64.8,278.3,64.6,278.8,64.6z"/>
		<path fill="#FFFFFF" d="M288.2,74L288.2,74c-0.7,1.1-1.7,1.6-2.9,1.6c-1.2,0-2.1-0.5-2.8-1.4c-0.7-1-1-2.3-1-4.1s0.3-3.1,1-4.1
			s1.6-1.5,2.8-1.5c1.2,0,2.2,0.5,2.8,1.6h0.1l-0.1-0.8l0-0.8v-4.4h1.4v15.2h-1.1L288.2,74z M285.4,74.3c0.9,0,1.6-0.3,2-0.9
			c0.4-0.6,0.6-1.6,0.6-2.9v-0.3c0-1.5-0.2-2.6-0.6-3.2c-0.4-0.6-1.1-1-2.1-1c-0.8,0-1.4,0.4-1.9,1.1c-0.4,0.7-0.6,1.8-0.6,3.1
			c0,1.4,0.2,2.4,0.6,3.1S284.6,74.3,285.4,74.3z"/>
		<path fill="#FFFFFF" d="M296.6,75.7c-1.3,0-2.4-0.5-3.2-1.4c-0.8-1-1.2-2.3-1.2-4c0-1.7,0.4-3.1,1.1-4.1s1.7-1.5,2.9-1.5
			c1.1,0,2,0.4,2.7,1.3s1,2,1,3.5v1h-6.3c0,1.3,0.3,2.2,0.8,2.9c0.5,0.7,1.2,1,2.2,1c1,0,1.9-0.2,2.9-0.7V75
			c-0.5,0.2-0.9,0.4-1.4,0.5C297.7,75.6,297.2,75.7,296.6,75.7z M296.2,65.9c-0.7,0-1.3,0.3-1.7,0.8c-0.4,0.6-0.7,1.3-0.8,2.3h4.8
			c0-1-0.2-1.8-0.6-2.3S296.9,65.9,296.2,65.9z"/>
		<path fill="#FFFFFF" d="M308.8,75.5v-6.9c0-0.9-0.2-1.5-0.5-2c-0.3-0.4-0.9-0.6-1.6-0.6c-1,0-1.6,0.3-2.1,0.9
			c-0.4,0.6-0.7,1.6-0.7,3v5.6h-1.4V64.8h1.1l0.2,1.5h0.1c0.3-0.5,0.7-0.9,1.2-1.2c0.5-0.3,1.1-0.4,1.7-0.4c1.1,0,1.9,0.3,2.5,0.9
			c0.6,0.6,0.8,1.6,0.8,3v7H308.8z"/>
	</g>
	<g>
		<g>
			<path fill="#FFFFFF" d="M33.1,0H11C4.9,0,0,4.9,0,11v22.1c0,6.1,4.9,11,11,11h22.1c6.1,0,11-4.9,11-11V11C44.1,4.9,39.2,0,33.1,0
				z M33.1,33.1H11V11h22.1V33.1z"/>
			<path fill="#FFFFFF" d="M22,12.9c-5,0-9,4.1-9,9c0,5,4,9,9,9c5,0,9-4,9-9C31,17,27,12.9,22,12.9z"/>
		</g>
		<path fill="#FFFFFF" d="M75,0l21.5,31.2v-24l-0.1-5.7h-6.5V0h13.8v1.5h-5.3l-0.1,5.7v37.2l-1,0.3L68.6,2.8v33.6l0.1,5.9h6.6v1.5
			H60.9v-1.5h5.7l0.1-5.9V7.2l-0.1-5.7h-5.7V0H75z"/>
		<path fill="#FFFFFF" d="M146.6,0v14h-1.9c-0.2-2.2-0.4-4.9-2.4-8.1c-2.2-3.8-5.3-4-8.3-4.1h-3.5l-0.1,5.6V36l0.1,6.3h6.7v1.5H117
			v-1.5h6.7l0.1-6.3V7.4l-0.1-5.6h-2.9c-3.6,0.1-6.3,0.1-8.9,4.2c-2,3.3-2.2,5.9-2.4,8h-1.8V0H146.6z"/>
		<path fill="#FFFFFF" d="M164.2,0l21.5,31.2v-24l-0.1-5.7h-6.5V0H193v1.5h-5.3l-0.1,5.7v37.2l-1,0.3L157.8,2.8v33.6l0.1,5.9h6.6
			v1.5h-14.3v-1.5h5.7l0.1-5.9V7.2l-0.1-5.7h-5.7V0H164.2z"/>
		<path fill="#FFFFFF" d="M217.1,0v1.5H211l-0.1,5.3v23.7c0.1,6.1,0.2,12,11.7,12c11.7,0,12.4-5.1,12.6-10.6V6.8l-0.1-5.3h-6.3V0
			h13.7v1.5h-5.4l-0.1,5.3v22.6c-0.1,8.1-0.1,15.1-16.2,15.1c-2.3,0-7.8-0.2-11.2-1.7c-5.5-2.4-5.6-7.2-5.7-13.2V6.8L204,1.5h-5.3V0
			H217.1z"/>
	</g>
</g>
</svg>
