<?xml version="1.0" encoding="UTF-8" standalone="no"?>
<!-- Created with Inkscape (http://www.inkscape.org/) -->

<svg
   version="1.1"
   id="svg25"
   xml:space="preserve"
   width="340.97531"
   height="137.62973"
   viewBox="0 0 340.97531 137.62973"
   xmlns="http://www.w3.org/2000/svg"
   xmlns:svg="http://www.w3.org/2000/svg"><defs
     id="defs29"><clipPath
       clipPathUnits="userSpaceOnUse"
       id="clipPath39"><path
         d="M 188.195,626.301 H 407.079 V 754.016 H 188.195 Z"
         id="path37" /></clipPath><clipPath
       clipPathUnits="userSpaceOnUse"
       id="clipPath143"><path
         d="M 169.771,457.564 H 425.503 V 560.787 H 169.771 Z"
         id="path141" /></clipPath></defs><g
     id="g31"
     transform="matrix(1.3333333,0,0,-1.3333333,-226.36199,747.71598)"><g
       id="g139"
       clip-path="url(#clipPath143)"
       style="fill:#ffffff"><g
         id="g145"
         transform="translate(227.1347,499.6433)"
         style="fill:#ffffff"><path
           d="m 0,0 h -5.566 v -18.428 h 5.66 c 5.953,0 8.832,2.69 8.832,9.119 C 8.926,-2.686 5.855,0 0,0"
           style="fill:#ffffff;fill-opacity:1;fill-rule:nonzero;stroke:none"
           id="path147" /></g><g
         id="g149"
         transform="translate(234.4277,517.6897)"
         style="fill:#ffffff"><path
           d="m 0,0 c 0,6.622 -2.879,8.734 -8.063,8.734 h -4.796 V -8.541 h 4.988 C -3.07,-8.541 0,-6.336 0,0"
           style="fill:#ffffff;fill-opacity:1;fill-rule:nonzero;stroke:none"
           id="path151" /></g><g
         id="g153"
         transform="translate(230.9745,470.5613)"
         style="fill:#ffffff"><path
           d="m 0,0 h -35.133 v 9.311 l 6.625,1.632 v 44.631 l -6.625,1.633 v 9.31 h 33.5 c 15.551,0 23.899,-5.471 23.899,-16.701 0,-7.966 -2.879,-12.957 -12.188,-15.357 v -0.48 C 20.922,32.635 25.434,27.645 25.434,17.949 25.434,6.623 17.852,0 0,0 M 27.473,76.289 -4.488,90.226 -37.172,75.809 -61.203,45.046 h 7.207 V -8.305 h 98.773 v 53.351 h 6.731 z"
           style="fill:#ffffff;fill-opacity:1;fill-rule:nonzero;stroke:none"
           id="path155" /></g><g
         id="g157"
         transform="translate(293.1386,487.6795)"
         style="fill:#ffffff"><path
           d="m 0,0 c 1.926,0 2.855,0.869 2.855,2.951 0,2.143 -0.992,3.014 -2.886,3.014 H -1.832 V 0 Z m -0.219,9.039 c 1.555,0 2.547,0.715 2.547,2.766 0,2.142 -0.93,2.826 -2.609,2.826 H -1.832 V 9.039 Z m -9.941,-9.475 2.144,0.528 v 14.447 l -2.144,0.527 V 18.08 H 0.684 c 5.031,0 7.734,-1.771 7.734,-5.406 0,-2.578 -0.93,-4.194 -3.945,-4.971 V 7.549 C 7.984,7.113 9.445,5.498 9.445,2.359 9.445,-1.305 6.988,-3.449 1.211,-3.449 H -10.16 Z"
           style="fill:#ffffff;fill-opacity:1;fill-rule:nonzero;stroke:none"
           id="path159" /></g><g
         id="g161"
         transform="translate(312.4706,487.74)"
         style="fill:#ffffff"><path
           d="M 0,0 V 3.574 L -1.461,3.512 C -2.734,3.418 -3.293,2.766 -3.293,1.43 c 0,-1.399 0.496,-2.051 1.676,-2.051 0.683,0 1.305,0.31 1.617,0.621 m -8.949,0.623 c 0,3.262 2.301,4.318 6.058,5 L 0,6.184 V 6.99 c 0,1.678 -0.621,2.299 -3.105,2.299 -1.461,0 -3.141,-0.123 -4.258,-0.31 v 3.292 c 1.586,0.561 4.164,1.151 6.957,1.151 4.195,0 6.09,-1.74 6.09,-5.438 V 0.592 c 0,-0.778 0.496,-0.994 1.121,-0.994 h 0.527 v -2.703 c -0.59,-0.374 -1.988,-0.778 -3.355,-0.778 -1.774,0 -2.86,0.559 -3.325,1.926 H 0.465 c -0.84,-1.055 -2.391,-1.957 -4.473,-1.957 -3.015,0 -4.941,1.865 -4.941,4.537"
           style="fill:#ffffff;fill-opacity:1;fill-rule:nonzero;stroke:none"
           id="path163" /></g><g
         id="g165"
         transform="translate(320.4941,487.0564)"
         style="fill:#ffffff"><path
           d="m 0,0 1.801,0.436 v 9.537 l -1.895,0.498 v 2.888 l 6.864,0.715 0.468,-0.217 v -2.486 h 0.184 c 0.902,1.492 2.301,2.672 4.195,2.672 0.281,0 0.621,-0.031 0.84,-0.094 V 8.918 C 12.113,9.01 11.523,9.072 10.996,9.072 9.473,9.072 8.418,8.887 7.484,8.451 V 0.436 L 9.816,0 V -2.826 H 0 Z"
           style="fill:#ffffff;fill-opacity:1;fill-rule:nonzero;stroke:none"
           id="path167" /></g><g
         id="g169"
         transform="translate(333.7011,487.0564)"
         style="fill:#ffffff"><path
           d="m 0,0 1.801,0.436 v 9.537 l -1.895,0.498 v 2.888 l 6.867,0.715 0.465,-0.217 v -1.771 h 0.188 c 1.582,1.211 3.168,2.019 5.469,2.019 2.546,0 4.316,-1.15 4.316,-4.101 V 0.436 L 18.859,0 V -2.826 H 10.191 V 0 l 1.336,0.342 v 7.674 c 0,1.336 -0.621,1.771 -1.957,1.771 -0.808,0 -1.429,-0.185 -2.082,-0.404 V 0.342 L 8.793,0 V -2.826 H 0 Z"
           style="fill:#ffffff;fill-opacity:1;fill-rule:nonzero;stroke:none"
           id="path171" /></g><g
         id="g173"
         transform="translate(353.373,487.0564)"
         style="fill:#ffffff"><path
           d="m 0,0 1.805,0.436 v 9.941 h -1.836 v 2.578 l 1.836,0.715 v 1.461 c 0,4.008 2.949,5.312 6.086,5.312 1.773,0 2.953,-0.341 3.605,-0.589 v -3.387 c -0.558,0.123 -1.086,0.185 -1.832,0.185 -1.461,0 -2.176,-0.404 -2.176,-2.082 v -0.806 h 3.043 V 10.377 H 7.488 V 0.436 L 9.633,0 V -2.826 H 0 Z"
           style="fill:#ffffff;fill-opacity:1;fill-rule:nonzero;stroke:none"
           id="path175" /></g><g
         id="g177"
         transform="translate(366.0527,504.9509)"
         style="fill:#ffffff"><path
           d="M 0,0 C 0,1.709 1.43,2.766 3.141,2.766 4.879,2.766 6.277,1.709 6.277,0 6.277,-1.738 4.879,-2.795 3.141,-2.795 1.43,-2.795 0,-1.738 0,0 m -1.336,-17.895 1.805,0.436 v 9.537 l -1.957,0.498 v 2.889 l 7.113,0.715 0.527,-0.217 v -13.422 l 1.68,-0.436 v -2.826 h -9.168 z"
           style="fill:#ffffff;fill-opacity:1;fill-rule:nonzero;stroke:none"
           id="path179" /></g><g
         id="g181"
         transform="translate(374.666,487.0564)"
         style="fill:#ffffff"><path
           d="m 0,0 1.801,0.436 v 9.537 l -1.895,0.498 v 2.888 l 6.864,0.715 0.468,-0.217 v -1.771 h 0.184 c 1.586,1.211 3.172,2.019 5.469,2.019 2.547,0 4.32,-1.15 4.32,-4.101 V 0.436 L 18.855,0 V -2.826 H 10.188 V 0 l 1.335,0.342 v 7.674 c 0,1.336 -0.621,1.771 -1.957,1.771 -0.808,0 -1.429,-0.185 -2.082,-0.404 V 0.342 L 8.789,0 V -2.826 H 0 Z"
           style="fill:#ffffff;fill-opacity:1;fill-rule:nonzero;stroke:none"
           id="path183" /></g><g
         id="g185"
         transform="translate(405.3066,488.3631)"
         style="fill:#ffffff"><path
           d="m 0,0 v 8.76 c -0.437,0.31 -0.902,0.59 -1.895,0.59 -1.742,0 -2.89,-0.963 -2.89,-5.002 0,-3.666 0.961,-4.877 2.703,-4.877 0.871,0 1.555,0.248 2.082,0.529 m -10.75,3.758 c 0,6.648 3.539,9.041 8.047,9.041 1.273,0 1.988,-0.188 2.703,-0.467 v 2.703 l -1.957,0.498 v 2.889 l 7.113,0.715 0.528,-0.219 V -0.373 L 7.453,-0.871 V -3.697 L 1.055,-4.443 0.559,-4.227 v 1.616 H 0.371 c -0.871,-1.149 -2.547,-1.895 -4.66,-1.895 -3.106,0 -6.461,1.926 -6.461,8.264"
           style="fill:#ffffff;fill-opacity:1;fill-rule:nonzero;stroke:none"
           id="path187" /></g><g
         id="g189"
         transform="translate(285.9644,463.2527)"
         style="fill:#ffffff"><path
           d="M 0,0 2.094,0.414 V 13.75 h -3.478 l -0.875,-3.293 h -1.106 l 0.255,4.56 H 9.625 l 0.252,-4.56 H 8.774 L 7.9,13.75 H 4.422 V 0.414 L 6.516,0 V -0.943 H 0 Z"
           style="fill:#ffffff;fill-opacity:1;fill-rule:nonzero;stroke:none"
           id="path191" /></g><g
         id="g193"
         transform="translate(303.7939,469.5857)"
         style="fill:#ffffff"><path
           d="m 0,0 c 0,2.441 -0.852,3.524 -2.557,3.524 -1.841,0 -2.924,-1.15 -3.087,-3.708 z m -7.83,-1.265 c 0,3.776 2.418,6.034 5.412,6.034 3.432,0 4.813,-2.395 4.813,-6.104 h -8.039 c 0.092,-3.154 1.567,-4.721 4.008,-4.721 1.682,0 2.603,0.323 3.454,0.622 V -6.47 c -0.735,-0.437 -1.934,-1.084 -3.891,-1.084 -4.031,0 -5.757,2.625 -5.757,6.289"
           style="fill:#ffffff;fill-opacity:1;fill-rule:nonzero;stroke:none"
           id="path195" /></g><g
         id="g197"
         transform="translate(307.3212,468.1121)"
         style="fill:#ffffff"><path
           d="m 0,0 c 0,4.469 2.835,6.242 6.196,6.242 1.107,0 2.21,-0.183 3.065,-0.461 V 2.811 H 8.062 L 7.602,4.769 C 7.233,4.884 6.886,4.975 5.941,4.975 3.64,4.975 2.189,3.432 2.189,0.254 c 0,-3.616 1.841,-4.814 4.123,-4.814 1.587,0 2.625,0.324 3.177,0.6 V -5.02 C 8.73,-5.55 7.578,-6.08 5.713,-6.08 2.05,-6.08 0,-3.708 0,0"
           style="fill:#ffffff;fill-opacity:1;fill-rule:nonzero;stroke:none"
           id="path199" /></g><g
         id="g201"
         transform="translate(317.4824,463.0925)"
         style="fill:#ffffff"><path
           d="M 0,0 1.729,0.367 V 14.67 L 0,15.039 v 0.875 l 3.478,0.529 0.254,-0.138 v -6.264 h 0.14 c 1.149,0.668 2.53,1.221 3.961,1.221 2.187,0 3.315,-0.83 3.315,-3.156 V 0.367 L 12.875,0 V -0.783 H 7.35 V 0 L 9.029,0.367 V 7.554 C 9.029,9.165 8.201,9.65 6.564,9.65 5.598,9.65 4.723,9.396 3.849,9.097 V 0.367 L 5.528,0 V -0.783 H 0 Z"
           style="fill:#ffffff;fill-opacity:1;fill-rule:nonzero;stroke:none"
           id="path203" /></g><g
         id="g205"
         transform="translate(330.8466,463.0925)"
         style="fill:#ffffff"><path
           d="M 0,0 1.726,0.367 V 9.418 L 0,9.788 v 0.874 l 3.478,0.553 0.251,-0.137 v -1.037 h 0.14 c 1.152,0.668 2.533,1.221 3.961,1.221 2.19,0 3.316,-0.83 3.316,-3.156 V 0.367 L 12.875,0 V -0.783 H 7.347 V 0 l 1.682,0.367 v 7.187 c 0,1.611 -0.831,2.073 -2.465,2.073 -0.966,0 -1.844,-0.231 -2.718,-0.53 V 0.367 L 5.528,0 V -0.783 H 0 Z"
           style="fill:#ffffff;fill-opacity:1;fill-rule:nonzero;stroke:none"
           id="path207" /></g><g
         id="g209"
         transform="translate(353.6044,468.0672)"
         style="fill:#ffffff"><path
           d="m 0,0 c 0,3.753 -1.749,5.02 -3.498,5.02 -1.729,0 -3.388,-1.151 -3.388,-4.79 0,-3.731 1.729,-5.021 3.501,-5.021 C -1.656,-4.791 0,-3.64 0,0 m -9.096,0.068 c 0,3.708 2.534,6.219 5.621,6.219 3.386,0 5.688,-2.394 5.688,-6.103 0,-3.708 -2.534,-6.242 -5.621,-6.242 -3.408,0 -5.688,2.418 -5.688,6.126"
           style="fill:#ffffff;fill-opacity:1;fill-rule:nonzero;stroke:none"
           id="path211" /></g><g
         id="g213"
         transform="translate(356.7206,463.0925)"
         style="fill:#ffffff"><path
           d="m 0,0 1.726,0.367 v 14.279 l -1.865,0.37 v 0.875 l 3.709,0.53 0.276,-0.138 V 0.367 L 5.574,0 V -0.783 H 0 Z"
           style="fill:#ffffff;fill-opacity:1;fill-rule:nonzero;stroke:none"
           id="path215" /></g><g
         id="g217"
         transform="translate(372.2686,468.0672)"
         style="fill:#ffffff"><path
           d="m 0,0 c 0,3.753 -1.749,5.02 -3.501,5.02 -1.727,0 -3.386,-1.151 -3.386,-4.79 0,-3.731 1.73,-5.021 3.501,-5.021 C -1.656,-4.791 0,-3.64 0,0 m -9.096,0.068 c 0,3.708 2.534,6.219 5.618,6.219 3.385,0 5.69,-2.394 5.69,-6.103 0,-3.708 -2.533,-6.242 -5.62,-6.242 -3.409,0 -5.688,2.418 -5.688,6.126"
           style="fill:#ffffff;fill-opacity:1;fill-rule:nonzero;stroke:none"
           id="path219" /></g><g
         id="g221"
         transform="translate(383.0527,470.4617)"
         style="fill:#ffffff"><path
           d="m 0,0 c 0,1.912 -1.061,2.718 -2.441,2.718 -1.452,0 -2.418,-0.899 -2.418,-2.671 0,-1.913 1.037,-2.718 2.418,-2.718 C -0.99,-2.671 0,-1.797 0,0 m 1.335,-9.051 c 0,1.082 -0.713,1.497 -2.027,1.497 h -3.846 c -0.805,-0.369 -1.266,-1.175 -1.266,-2.096 0,-1.127 0.875,-1.934 2.994,-1.934 2.903,0 4.145,1.197 4.145,2.533 m -9.143,-1.012 c 0,1.197 0.968,2.14 2.256,2.694 v 0.114 c -0.735,0.276 -1.242,0.83 -1.242,1.59 0,0.874 0.53,1.681 1.497,2.487 -1.014,0.598 -1.659,1.589 -1.659,3.063 0,2.603 2.05,4.008 4.538,4.008 0.828,0 1.609,-0.138 2.278,-0.414 L 3.315,3.962 V 2.396 L 1.129,2.534 C 1.726,1.935 2.097,1.221 2.097,0.138 c 0,-2.602 -2.051,-3.985 -4.538,-3.985 -0.739,0 -1.452,0.093 -2.074,0.3 -0.437,-0.414 -0.645,-0.921 -0.645,-1.311 0,-0.393 0.277,-0.716 0.877,-0.716 h 3.938 c 1.888,0 3.544,-0.645 3.544,-2.902 0,-2.394 -2.139,-4.421 -6.193,-4.421 -3.479,0 -4.814,1.52 -4.814,2.834"
           style="fill:#ffffff;fill-opacity:1;fill-rule:nonzero;stroke:none"
           id="path223" /></g><g
         id="g225"
         transform="translate(388.2852,477.532)"
         style="fill:#ffffff"><path
           d="M 0,0 C 0,0.714 0.6,1.29 1.312,1.29 2.05,1.29 2.627,0.714 2.627,0 2.627,-0.667 2.05,-1.29 1.312,-1.29 0.6,-1.29 0,-0.667 0,0 m -1.358,-14.439 1.703,0.367 v 9.051 l -1.842,0.37 v 0.874 l 3.707,0.552 0.255,-0.136 v -10.711 l 1.725,-0.367 v -0.784 h -5.548 z"
           style="fill:#ffffff;fill-opacity:1;fill-rule:nonzero;stroke:none"
           id="path227" /></g><g
         id="g229"
         transform="translate(401.1865,469.5857)"
         style="fill:#ffffff"><path
           d="m 0,0 c 0,2.441 -0.854,3.524 -2.558,3.524 -1.844,0 -2.924,-1.15 -3.087,-3.708 z m -7.834,-1.265 c 0,3.776 2.421,6.034 5.413,6.034 3.431,0 4.816,-2.395 4.816,-6.104 h -8.04 c 0.093,-3.154 1.567,-4.721 4.008,-4.721 1.68,0 2.604,0.323 3.455,0.622 V -6.47 c -0.738,-0.437 -1.934,-1.084 -3.892,-1.084 -4.03,0 -5.76,2.625 -5.76,6.289"
           style="fill:#ffffff;fill-opacity:1;fill-rule:nonzero;stroke:none"
           id="path231" /></g><g
         id="g233"
         transform="translate(404.9218,462.655)"
         style="fill:#ffffff"><path
           d="M 0,0 -0.186,3.178 H 0.921 L 1.54,1.128 C 1.978,0.897 2.763,0.621 3.822,0.621 c 1.451,0 2.511,0.576 2.511,1.797 0,1.197 -0.6,1.589 -2.235,2.118 L 2.832,4.95 c -1.842,0.6 -2.879,1.567 -2.879,3.318 0,1.841 1.428,3.408 4.26,3.408 1.312,0 2.488,-0.207 3.269,-0.438 V 8.244 H 6.446 l -0.55,1.797 c -0.394,0.23 -0.947,0.391 -1.891,0.391 -1.266,0 -2.233,-0.437 -2.233,-1.658 0,-1.013 0.577,-1.497 2.279,-2.027 L 5.319,6.333 C 7.46,5.619 8.244,4.652 8.244,2.993 8.244,0.99 6.701,-0.646 3.66,-0.646 2.395,-0.646 1.033,-0.346 0,0"
           style="fill:#ffffff;fill-opacity:1;fill-rule:nonzero;stroke:none"
           id="path235" /></g><g
         id="g237"
         transform="translate(420.0156,502.5086)"
         style="fill:#ffffff"><path
           d="M 0,0 C 0.729,0 0.868,0.336 0.868,0.868 0.868,1.456 0.673,1.652 0,1.652 H -0.56 V 0 Z m -2.436,-2.324 0.617,0.168 v 3.78 L -2.436,1.792 V 2.38 h 2.464 c 1.317,0 2.128,-0.504 2.128,-1.456 0,-0.784 -0.559,-1.092 -1.063,-1.26 V -0.42 L 2.24,-2.184 2.688,-2.324 V -2.856 H 1.261 L 0,-0.756 h -0.56 v -1.4 l 0.588,-0.168 v -0.532 h -2.464 z m 6.804,2.016 c 0,2.52 -1.764,4.592 -4.368,4.592 -2.604,0 -4.34,-2.072 -4.34,-4.592 0,-2.576 1.736,-4.592 4.34,-4.592 2.604,0 4.368,2.016 4.368,4.592 m -9.828,0 c 0,3.052 2.38,5.488 5.46,5.488 3.08,0 5.488,-2.436 5.488,-5.488 0,-3.024 -2.408,-5.516 -5.488,-5.516 -3.08,0 -5.46,2.492 -5.46,5.516"
           style="fill:#ffffff;fill-opacity:1;fill-rule:nonzero;stroke:none"
           id="path239" /></g></g></g></svg>
