<?xml version="1.0" encoding="UTF-8" standalone="no"?>
<!-- Created with Inkscape (http://www.inkscape.org/) -->

<svg
   version="1.1"
   id="svg73"
   xml:space="preserve"
   width="378.66666"
   height="281.33334"
   viewBox="0 0 378.66666 281.33334"
   xmlns="http://www.w3.org/2000/svg"
   xmlns:svg="http://www.w3.org/2000/svg"><defs
     id="defs77"><clipPath
       clipPathUnits="userSpaceOnUse"
       id="clipPath87"><path
         d="M 0.06,210.362 H 283.466 V 0.06 H 0.06 Z"
         id="path85" /></clipPath></defs><g
     id="g79"
     transform="matrix(1.3333333,0,0,-1.3333333,0,281.33333)"><path
       d="m 178.393,13.731 c 0,3.561 -1.761,5.213 -4.478,5.213 -2.681,0 -5.471,-1.395 -7.526,-3.084 v 3.341 l -7.49,-3.158 2.57,-1.468 V 3.562 l -2.753,-2.754 h 10.206 l -2.533,2.754 v 11.307 c 1.211,0.331 2.276,0.514 3.231,0.514 2.349,0 3.817,-1.101 3.817,-4.039 V 3.562 l -2.496,-2.754 h 10.206 l -2.754,2.754 z M 150.935,4.295 c -0.882,-0.55 -1.726,-0.843 -2.644,-0.843 -1.652,0 -2.57,0.954 -2.57,2.313 0,1.505 1.102,3.12 5.214,4.735 z m 4.882,7.857 c 0,5.103 -1.395,6.608 -6.534,6.608 -5.728,0 -8.591,-2.459 -8.591,-4.626 0,-1.468 0.918,-2.459 2.497,-2.459 3.56,0 2.936,5.8 6.094,5.8 1.064,0 1.652,-0.624 1.652,-2.239 v -3.634 c -7.196,-1.249 -10.573,-3.855 -10.573,-7.123 0,-2.422 1.762,-4.112 4.736,-4.112 2.569,0 4.515,1.138 5.837,2.533 V 0.037 l 7.452,2.974 -2.57,1.615 z m 9.453,40.916 c 0,3.487 0.771,6.021 3.524,6.021 2.79,0 3.562,-2.534 3.562,-6.021 v -2.9 c 0,-3.489 -0.772,-5.985 -3.562,-5.985 -2.753,0 -3.524,2.496 -3.524,6.021 z m 3.524,-10.72 c 5.177,0 9.215,3.891 9.215,9.251 0,5.397 -4.038,9.325 -9.215,9.325 -5.14,0 -9.177,-3.928 -9.177,-9.325 0,-5.36 4.037,-9.251 9.177,-9.251 z m -32.323,-15.327 -7.489,-3.194 2.643,-1.505 V 3.562 l -2.68,-2.754 h 10.206 l -2.68,2.754 z m 1.964,38.786 2.79,-1.653 V 45.542 l -2.68,-2.754 h 10.206 l -2.681,2.754 v 6.535 l 5.544,-7.159 -1.726,-2.13 h 10.28 l -3.158,2.864 -6.204,7.893 3.194,2.569 5.985,4.37 h -9.729 V 56.189 L 146.07,52.59 v 16.411 z m 40.674,-23.019 h 10.206 l -2.68,2.754 v 23.459 l -7.49,-3.194 2.644,-1.505 v -18.76 z m 48.678,-18.778 -8.701,-7.673 h 3.708 V 5.544 c 0,-3.745 1.835,-5.177 4.405,-5.177 2.533,0 5.066,1.249 5.911,3.341 -1.101,-0.734 -2.24,-0.991 -3.194,-0.991 -1.286,0 -2.129,0.808 -2.129,2.24 v 11.38 h 5.359 v 2.167 h -5.359 z m -96.326,20.137 c -2.643,0 -4.92,2.973 -6.534,5.69 l -1.506,-5.58 c 2.313,-1.286 4.883,-2.166 7.342,-2.166 3.929,0 6.572,2.275 6.572,5.616 0,2.717 -1.652,4.222 -6.021,6.388 -2.533,1.249 -3.671,1.946 -3.671,3.158 0,1.101 0.845,1.872 2.24,1.872 1.688,0 3.193,-1.138 5.653,-5.139 l 0.991,5.323 c -1.248,0.734 -3.708,1.615 -6.241,1.615 -3.854,0 -6.535,-2.056 -6.535,-5.433 0,-2.607 1.542,-4.332 5.581,-6.241 3.377,-1.579 4.112,-2.497 4.112,-3.488 0,-1.102 -0.882,-1.615 -1.983,-1.615 z m 91.37,9.177 v -7.782 l -2.496,-2.754 h 10.205 l -2.753,2.754 v 10.169 c 0,3.561 -1.762,5.213 -4.479,5.213 -2.68,0 -5.47,-1.395 -7.526,-3.084 v 3.341 l -7.489,-3.158 2.569,-1.468 V 45.542 l -2.752,-2.754 h 10.205 l -2.533,2.754 v 11.307 c 1.211,0.331 2.277,0.514 3.231,0.514 2.35,0 3.818,-1.101 3.818,-4.039 z m -15.81,-40.511 c 0.294,3.084 1.799,4.296 3.634,4.296 2.387,0 3.341,-2.167 3.341,-4.296 z m 4.075,6.131 c -4.956,0 -8.554,-3.744 -8.554,-9.215 0,-5.25 3.414,-9.362 8.811,-9.362 4.956,0 7.379,2.937 7.49,6.976 -1.212,-1.909 -2.938,-2.973 -5.434,-2.973 -3.561,0 -6.241,2.312 -6.425,6.791 h 11.969 c 0,4.553 -3.525,7.783 -7.857,7.783 z M 194.14,4.112 c -0.366,-0.331 -0.881,-0.514 -1.761,-0.514 -2.387,0 -4.773,1.909 -4.773,6.755 0,4.81 1.799,7.012 4.075,7.012 1.542,0 2.459,-1.028 2.459,-2.753 z m 4.994,22.909 -7.6,-3.194 2.606,-1.138 V 18.32 c -0.917,0.367 -1.982,0.55 -3.12,0.55 -5.507,0 -8.811,-4.295 -8.811,-9.765 0,-5.029 2.717,-8.738 6.866,-8.738 2.312,0 4.111,0.992 5.065,2.533 V 0 l 7.453,3.011 -2.459,1.615 z m -4.204,27.772 c 0.294,3.084 1.799,4.296 3.635,4.296 2.386,0 3.34,-2.167 3.34,-4.296 z m 4.075,6.131 c -4.955,0 -8.553,-3.744 -8.553,-9.215 0,-5.249 3.414,-9.361 8.811,-9.361 4.955,0 7.378,2.936 7.489,6.975 -1.212,-1.909 -2.938,-2.973 -5.434,-2.973 -3.561,0 -6.241,2.312 -6.425,6.791 h 11.969 c 0,4.553 -3.525,7.783 -7.857,7.783 z M 81.849,26.58 H 70.762 l 2.827,-3.011 V 3.818 l -2.827,-3.01 h 11.087 l -2.827,3.01 v 19.751 z m -2.257,38.969 2.68,3.011 H 71.369 l 2.716,-3.011 v -8.517 h -11.05 v 8.517 l 2.753,3.011 H 54.775 l 2.753,-3.011 V 45.798 l -2.753,-3.01 h 11.013 l -2.753,3.01 v 8.958 h 11.05 v -8.958 l -2.716,-3.01 h 10.976 l -2.753,3.01 z M 96.588,50.168 c 0,-3.489 -0.771,-5.985 -3.561,-5.985 -0.698,0 -1.249,0.147 -1.689,0.441 l 4.919,11.675 c 0.22,-0.918 0.331,-2.02 0.331,-3.231 z m -6.609,-3.672 c -0.367,1.028 -0.477,2.277 -0.477,3.708 v 2.864 c 0,3.487 0.771,6.021 3.525,6.021 0.807,0 1.468,-0.221 1.945,-0.625 z m 6.975,16.667 -1.1,-2.643 c -0.882,0.257 -1.836,0.404 -2.827,0.404 -5.14,0 -9.178,-3.928 -9.178,-9.325 0,-3.708 1.909,-6.719 4.809,-8.187 l -1.102,-2.643 1.836,-0.734 1.101,2.643 c 0.808,-0.221 1.652,-0.33 2.534,-0.33 5.176,0 9.214,3.891 9.214,9.251 0,3.598 -1.799,6.572 -4.552,8.114 l 1.101,2.607 z m 6.15,-49.432 c 0,3.561 -1.763,5.213 -4.479,5.213 -2.68,0 -5.47,-1.395 -7.526,-3.084 v 3.341 l -7.49,-3.158 2.57,-1.468 V 3.562 L 83.426,0.808 h 10.206 l -2.533,2.754 v 11.307 c 1.211,0.331 2.276,0.514 3.231,0.514 2.349,0 3.818,-1.101 3.818,-4.039 V 3.562 L 95.651,0.808 h 10.206 l -2.753,2.754 z m 135.26,157.976 h 6.441 v -12.883 h -6.441 z m 0,-13.655 h 6.441 v -3.221 h -6.441 z m 0,-3.997 h 6.441 v -3.347 h -6.441 z m 0,-4.123 h 6.441 v -3.221 h -6.441 z m 6.441,-16.881 h -4.637 l -1.804,2.581 v 10.308 h 6.441 z m -32.208,-0.771 h 32.208 v -3.221 h -32.208 z m 0,-3.992 h 32.208 v -3.352 h -32.208 z m 0,-4.123 h 32.208 v -3.221 h -32.208 z m -19.325,22.546 v 3.221 h 19.713 l 2.193,-3.221 z m 0,-0.771 h 6.441 v -12.889 h -6.441 z m 0,-13.66 h 6.441 v -3.221 h -6.441 z m 0,-3.992 h 6.441 v -3.352 h -6.441 z m 0,-4.123 h 6.441 v -3.221 h -6.441 z m -12.884,48.318 v 3.221 h 15.076 l 2.183,-3.221 z m -25.766,-14.431 h 25.766 v -3.221 h -25.766 z m 0,-3.997 h 25.766 v -3.347 h -25.766 z m 0,-4.123 h 25.766 v -3.221 h -25.766 z m 0,-3.992 h 12.883 v -12.889 h -12.883 z m 12.883,-16.881 h -27.708 l -2.192,3.221 h 29.9 z m 0,-4.123 H 142.63 l -2.319,3.352 h 27.194 z m 0,-3.992 h -22.168 l -2.193,3.221 h 24.361 z m -32.219,14.688 v 10.308 h 6.442 v -12.889 h -4.637 z m -7.596,11.079 -2.192,3.221 h 16.23 v -3.221 z m 6.83,-9.92 -3.221,4.638 v 4.511 h 3.221 z m -3.997,5.797 -2.319,3.352 h 2.319 z m -7.858,11.467 h 19.063 v -3.347 h -16.745 z m -0.262,-24.996 H 90.194 v 3.221 h 31.695 l 0.514,-0.645 z m -32.209,-0.771 h 32.209 v -3.352 H 90.194 Z m 0,-4.123 h 32.209 v -3.221 H 90.194 Z m 0,21.775 h 6.442 v -12.889 h -6.442 z m 0,3.992 h 6.442 v -3.221 h -6.442 z m 0,4.123 h 6.442 v -3.347 h -6.442 z m 0,3.997 h 6.442 v -3.221 h -6.442 z m 0,13.655 h 4.763 l 1.679,-2.445 v -10.439 h -6.442 z m 10.439,-8.247 v -30.409 h -3.221 v 35.052 z m 4.123,-6.053 v -24.356 h -3.357 v 29.25 z m 3.987,-5.796 v -18.56 h -3.221 v 23.197 z m -18.549,24.093 h 32.209 v -3.221 H 90.194 Z m 0,4.123 h 32.209 v -3.352 H 90.194 Z m 0,3.992 h 32.209 v -3.221 H 90.194 Z m 22.42,-37.879 8.76,-12.889 h -11.855 v 12.889 z m -2.067,25.767 h 11.856 v -12.884 h -2.959 z m 1.553,-24.996 h -2.581 v 3.221 h 0.388 z m 29.628,11.341 v -3.221 h -19.577 l -2.193,3.221 z m -6.442,13.655 h 6.442 v -12.883 h -6.442 z m 0,3.997 h 6.442 v -3.221 h -6.442 z m 0,4.123 h 6.442 v -3.352 h -6.442 z m 0,3.992 h 6.442 v -3.221 h -6.442 z m 19.336,-12.112 h 12.883 v -12.883 h -12.883 z m 0,3.997 h 12.883 v -3.221 h -12.883 z m 0,4.123 h 12.883 v -3.352 h -12.883 z m 0,3.992 h 12.883 v -3.221 h -12.883 z m 25.766,-3.992 h 12.233 l 2.193,-3.352 h -14.426 z m 0,3.992 h 9.401 l 2.318,-3.221 h -11.719 z m 19.325,-14.431 v -10.565 h -6.441 v 12.884 h 4.899 z m 7.732,-11.336 2.193,-3.221 h -16.366 v 3.221 z m -6.955,10.177 3.221,-4.637 v -4.769 h -3.221 z m 3.986,-5.797 2.455,-3.609 h -2.455 z m 7.995,-11.724 h -19.199 v 3.347 h 16.88 z m 12.107,-17.657 h -11.981 v 12.889 h 3.221 z m -1.542,25.001 h 2.444 v -3.221 h -0.252 z m 2.444,13.655 v -12.884 h -2.958 l -8.897,12.884 z m 0.776,0 h 3.221 v -23.06 l -3.221,4.637 z m 3.998,0 h 3.346 v -29.119 l -3.346,4.899 z m 4.123,0 h 3.221 v -34.916 l -3.221,4.769 z M 51.533,158.052 H 77.31 v -3.221 H 51.533 Z m 0,-3.997 H 77.31 v -3.347 H 51.533 Z m 0,-4.123 H 77.31 v -3.221 H 51.533 Z m 0,-3.992 H 64.427 V 133.051 H 51.533 Z m 0,-13.66 h 12.894 v -3.221 H 51.533 Z m 0,-3.992 h 12.894 v -3.352 H 51.533 Z m 0,-4.123 h 12.894 v -3.221 H 51.533 Z m 0,47.542 H 64.427 V 158.824 H 51.533 Z m -12.883,3.997 h 25.777 v -3.221 H 38.65 Z m 0,4.123 h 25.777 v -3.352 H 38.65 Z m 0,3.992 h 25.777 v -3.221 H 38.65 Z m 244.816,-25.767 v 0.771 h -25.777 v 12.884 h 19.335 v 0.776 h -63.913 l -0.514,0.771 v 2.45 h 64.427 v 0.771 h -64.427 v 3.352 h 64.427 v 0.771 h -64.427 v 3.221 h 64.427 v 0.776 h -19.335 v 12.884 h -12.884 v -12.884 h -6.441 v 19.325 h -0.766 v -19.325 h -3.221 V 203.92 H 233.6 v -19.325 h -3.346 v 19.325 h -0.777 v -19.325 h -3.221 v 19.325 h -0.776 v -19.325 h -12.883 v 25.767 h -0.777 v -35.949 l -3.22,4.638 v 31.311 h -0.766 V 180.21 l -3.358,4.899 v 25.253 h -0.765 v -24.093 l -3.221,4.637 v 19.456 h -0.777 v -18.297 l -3.735,5.414 h -15.59 v 6.441 h -0.776 v -45.097 h -3.221 v 45.097 h -0.776 v -45.097 h -3.347 v 45.097 h -0.776 v -45.097 h -3.221 v 45.097 h -0.766 v -19.325 h -12.883 v 12.884 h -12.894 v -12.884 h -6.442 v 19.325 h -0.766 v -45.097 h -3.221 v 45.097 h -0.776 v -45.097 h -3.347 V 203.92 H 126.4 v -45.097 h -3.221 v 45.097 h -0.776 v -19.325 h -12.884 v 25.767 h -0.776 v -25.767 h -3.221 v 25.767 h -0.766 v -25.767 h -3.095 l -0.262,0.383 v 25.384 h -0.766 v -24.225 l -3.221,4.769 v 19.456 h -0.776 v -18.297 l -3.735,5.414 h -15.59 v 6.441 H 76.534 V 158.823 H 73.313 V 203.92 H 72.537 V 158.823 H 69.19 V 203.92 H 68.414 V 158.823 H 65.193 V 203.92 H 64.427 V 184.595 H 51.533 v 12.884 H 38.65 v 12.883 h -0.766 v -51.539 h -3.22 v 51.539 H 33.887 V 158.823 H 30.54 v 51.539 h -0.776 v -51.539 h -3.221 v 51.539 H 25.767 V 184.595 H 6.442 v -0.776 h 19.325 v -3.221 H 6.442 v -0.771 h 19.325 v -3.352 H 6.442 v -0.771 h 19.325 v -3.221 H 6.442 v -0.776 H 25.767 V 158.823 H 0 v -0.771 h 38.65 v -3.221 H 0 v -0.776 h 38.65 v -3.347 H 0 v -0.776 h 38.65 v -3.221 H 0 V 145.94 H 25.767 V 133.051 H 6.442 v -0.771 h 19.325 v -3.221 H 6.442 v -0.771 h 19.325 v -3.352 H 6.442 v -0.771 h 19.325 v -3.221 H 6.442 v -0.776 H 25.767 V 94.401 h 0.776 v 51.539 h 3.221 V 94.401 h 0.776 v 51.539 h 3.347 V 94.401 h 0.777 v 51.539 h 3.22 V 94.401 h 0.766 v 12.883 h 12.883 v 12.884 h 12.894 v -19.325 h 0.766 v 45.097 h 3.221 v -45.097 h 0.776 v 45.097 h 3.347 v -45.097 h 0.776 v 45.097 h 3.221 v -45.097 h 0.777 v 6.441 h 12.883 v 12.884 h 6.442 V 94.401 h 0.776 v 25.767 h 3.221 V 94.401 h 0.766 v 25.767 h 3.357 V 94.401 h 0.766 v 25.767 h 3.221 V 94.401 h 0.776 v 25.767 h 12.884 v -19.325 h 0.776 v 29.633 l 3.221,-4.769 v -24.864 h 0.776 v 23.836 l 3.347,-4.894 v -18.942 h 0.776 v 17.783 l 3.221,-4.769 v -13.014 h 0.766 v 11.855 l 3.735,-5.414 h 15.601 v 12.884 h 12.883 v -19.325 h 0.766 v 45.097 h 3.221 v -45.097 h 0.776 v 45.097 h 3.347 v -45.097 h 0.776 v 45.097 h 3.221 v -45.097 h 0.776 v 6.441 h 12.884 v 12.884 h 6.441 V 94.401 h 0.777 v 51.539 h 3.221 V 94.401 h 0.765 v 51.539 h 3.358 V 94.401 h 0.766 v 51.539 h 3.22 V 94.401 h 0.777 v 25.767 h 12.883 v -19.325 h 0.776 v 19.325 h 3.221 v -19.325 h 0.777 v 19.325 h 3.084 l 0.262,-0.383 v -18.942 h 0.777 v 17.783 l 3.221,-4.643 v -13.14 h 0.766 v 11.981 l 3.734,-5.54 h 15.591 v 12.884 h 19.335 v 0.776 h -19.335 v 3.221 h 19.335 v 0.771 h -19.335 v 3.352 h 19.335 v 0.771 h -19.335 v 3.221 h 19.335 v 0.771 h -19.335 v 12.889 h 25.777 v 0.771 h -25.777 v 3.221 h 25.777 v 0.776 h -25.777 v 3.347 h 25.777 v 0.776 h -25.777 v 3.221 z M 110.683,42.861 l 3.672,-0.623 c 2.092,-0.368 3.231,-1.542 3.231,-3.121 0,-1.542 -1.506,-3.12 -4.81,-3.12 -3.157,0 -4.699,1.395 -4.699,3.23 0,1.285 0.844,2.643 2.606,3.634 z m 1.689,16.521 c 1.762,0 2.754,-1.873 2.754,-5.103 0,-3.157 -1.101,-4.993 -2.754,-4.993 -1.689,0 -2.753,1.726 -2.753,4.993 0,3.304 1.101,5.103 2.753,5.103 z m -8.847,-20.633 c 0,-3.12 3.744,-4.515 8.591,-4.515 6.314,0 9.508,3.047 9.618,6.314 0.073,2.571 -2.056,4.443 -5.764,5.067 l -6.351,1.101 v 1.762 c 0.845,-0.183 1.762,-0.294 2.753,-0.294 4.296,0 7.857,2.24 7.857,6.021 0,1.432 -0.478,2.313 -1.505,3.268 l 4.222,3.011 h -10.574 c -5.396,0 -8.077,-2.975 -8.077,-6.279 0,-2.606 1.689,-4.625 4.516,-5.506 L 104.186,44 l 4.956,-0.845 c -3.892,-0.698 -5.617,-2.68 -5.617,-4.406 z M 58.612,19.201 50.976,16.154 53.693,14.355 V 3.562 L 50.939,0.808 h 10.427 l -2.754,2.754 z m 67.362,-5.47 c 0,3.561 -1.763,5.213 -4.479,5.213 -2.681,0 -5.47,-1.395 -7.526,-3.084 v 3.341 l -7.49,-3.158 2.57,-1.468 V 3.562 l -2.753,-2.754 h 10.206 l -2.533,2.754 v 11.307 c 1.211,0.331 2.276,0.514 3.23,0.514 2.35,0 3.818,-1.101 3.818,-4.039 V 3.562 l -2.496,-2.754 h 10.206 l -2.753,2.754 z M 59.09,23.79 c 0,1.872 -1.505,3.341 -3.341,3.341 -1.836,0 -3.341,-1.469 -3.341,-3.341 0,-1.872 1.505,-3.341 3.341,-3.341 1.836,0 3.341,1.469 3.341,3.341"
       style="fill:#ffffff;fill-opacity:1;fill-rule:nonzero;stroke:none"
       id="path89" /></g></svg>
