<?xml version="1.0" encoding="UTF-8" standalone="no"?>
<svg
   class="fill-current stroke-current"
   viewBox="0 0 140.8 67.8"
   fill="white"
   version="1.1"
   id="svg11"
   xmlns="http://www.w3.org/2000/svg"
   xmlns:svg="http://www.w3.org/2000/svg">
  <defs
     id="defs15" />
  <path
     d="M 17.2,28.2 C 15.6,28.3 14,27.4 13.4,25.9 L 11.5,21.2 C 10.3,18.3 9.2,18.2 7.8,17.9 6.9,17.7 6.1,17.6 5.2,17.6 V 28 H 3.5 C 1.7,28.2 0.1,26.9 0,25.1 V 2.6 C 2.2,2 4.4,1.7 6.7,1.6 h 2.9 c 5.2,0 8.6,3.1 8.6,7.5 0,3.6 -2.3,6.5 -5.4,6.9 1.5,0.8 2.6,2.1 3.2,3.7 l 2.1,4.9 c 0.4,1 1,1.9 1.6,2.7 -0.6,0.7 -1.1,0.9 -2.5,0.9 M 7.5,6.2 C 6.7,6.2 5.9,6.3 5.2,6.5 v 6.9 c 1.3,0.2 2.5,0.3 3.8,0.2 2.1,0 3.9,-1.2 3.9,-3.6 C 12.9,6.8 11.3,6.2 9,6.2 Z m 20.4,13.7 h -3.4 c 0.4,2.6 2.8,4.2 5.8,4.2 2.1,0 4.6,-0.4 6.3,-1.9 h 0.2 v 1.6 c 0,2.6 -1.8,4.6 -7.4,4.6 -5.6,0 -10.1,-4.6 -10.1,-10.2 V 18 c 0,-6.7 4.2,-11 10,-11 4.4,-0.2 8.1,3.3 8.2,7.6 V 15 c 0,3.8 -2.8,5 -9.6,4.9 m 1,-8.6 c -2.4,0 -4.3,2 -4.3,4.4 v 0.7 h 2.2 c 4.8,0 6,-0.5 6,-2 0,-2.1 -1.6,-3.1 -3.9,-3.1 M 49,28.5 C 43.6,28.5 39.4,23.8 39.4,18.1 39.4,11.4 42.7,7 48.7,7 a 6,6 0 0 1 5.1,3.2 V 0.6 h 1.6 c 1.7,-0.2 3.3,1 3.5,2.8 v 15.2 c 0,5.9 -2.8,9.9 -9.9,9.9 M 48.7,11.3 c -2.6,0 -4.3,2.5 -4.3,5.8 0,4.3 2.2,7 5.2,7 3,0 4.1,-2.1 4.1,-5.9 0,-5 -2.2,-6.9 -5,-6.9 m 22.9,17.2 a 6,6 0 0 1 -5.2,-3 v 9.1 h -1.6 c -1.9,0 -3.5,-1.5 -3.6,-3.4 V 18.5 C 61.3,11.7 64.3,7 71.6,7 c 5.4,0 9.3,5 9.3,10.1 0,6.6 -3.3,11.4 -9.3,11.4 m -0.8,-17 c -2.8,0 -4.4,2.4 -4.4,6 0,4.1 2,6.4 5.1,6.4 2.5,0 4.2,-2.2 4.2,-5.5 C 75.6,13.6 74,11.5 70.8,11.5 M 85.8,6 c -1.7,0 -3,-1.3 -3,-3 0,-1.7 1.3,-3 3,-3 1.7,0 3,1.3 3,3 0,1.7 -1.3,3 -3,3 m 3.6,22.2 c -4,0 -6.1,-2.2 -6.1,-6.4 V 7.9 h 1.4 c 2.3,0 3.7,1.2 3.7,3.8 v 9.6 c 0,2.1 0.9,2.7 3.1,2.7 h 1 v 1.1 c 0,2.2 -0.9,3.1 -3.1,3.1 m 11.2,0 c -4.2,0 -6.5,-2.2 -6.5,-6.4 V 0.6 h 1.4 c 2.6,0 3.7,1.5 3.7,3.4 v 17.3 c 0,2.1 1.1,2.7 3.5,2.7 h 1.4 v 1.1 c -0.1,2.2 -1.3,3.1 -3.5,3.1 m 11.2,0 c -4.2,0 -6.5,-2.2 -6.5,-6.4 V 0.6 h 1.4 c 2.6,0 3.7,1.5 3.7,3.4 v 17.3 c 0,2.1 1.1,2.7 3.5,2.7 h 1.4 v 1.1 c 0,2.2 -1.2,3.1 -3.5,3.1 M 46.4,61.6 h -2 c -6.1,0 -9.5,-3.4 -9.5,-9.7 V 35.2 H 37 c 2.1,0 3.2,1.2 3.2,3.8 v 12.5 c 0,4 0.9,5.4 4.8,5.4 h 1.3 a 14,14 0 0 0 5.4,-1 v 1.8 c 0.2,2.4 -1,3.9 -5.3,3.9 M 56,39.4 c -1.7,0 -3,-1.3 -3,-3 0,-1.7 1.3,-3 3,-3 1.7,0 3,1.3 3,3 0,1.7 -1.3,3 -3,3 m 3.9,22.1 c -4,0 -6.1,-2.2 -6.1,-6.4 V 41.2 h 1.5 c 2.3,0 3.7,1.2 3.7,3.8 v 9.6 c 0,2.1 0.9,2.7 3.1,2.7 h 1 v 1.1 c -0.2,2.3 -1.1,3.1 -3.2,3.1 m 21.6,-0.2 c -2.3,0 -3.7,-1.5 -3.7,-3.3 v -8.2 c 0,-3.5 -1.5,-5 -4.2,-5 -2.2,0 -3.7,1.7 -3.7,4.6 V 61.3 H 68.4 C 66.6,61.4 65,60.1 64.8,58.2 V 49 c 0,-4.3 2.8,-8.8 9.3,-8.8 4.8,0 8.8,3.2 8.8,9.1 v 12 z m 14.6,0.5 c -2.1,0 -4.1,-1.2 -5.2,-3 v 9.1 h -1.6 c -1.9,0 -3.5,-1.5 -3.6,-3.4 V 51.9 c 0,-6.8 3,-11.5 10.3,-11.5 5.4,0 9.3,5 9.3,10.1 0,6.5 -3.3,11.3 -9.2,11.3 m -0.9,-17 c -2.8,0 -4.4,2.4 -4.4,6 0,4.1 2,6.4 5.1,6.4 2.5,0 4.2,-2.2 4.2,-5.5 0,-4.8 -1.6,-6.9 -4.9,-6.9 m 24.1,1 c -0.9,-0.4 -2,-0.6 -3,-0.6 -2.3,0 -3.5,1.3 -3.5,4.4 v 11.8 h -1.4 c -2.3,0 -3.7,-1.1 -3.7,-3.3 v -9.5 c 0,-4.1 2.2,-8 7.6,-8 3.2,0 4.3,1.8 4.3,3.3 v 1.8 z m 11.8,-5.5 c -6.6,0 -10.2,5 -10.2,11.1 0,5.5 3.6,10.4 9.7,10.4 6.6,0 10.2,-4.9 10.2,-11.1 0,-5.4 -3.5,-10.4 -9.7,-10.4 m 1.7,3.7 c -1.7,0.1 -3.3,0.6 -4.8,1.3 -3.7,1.8 -4.3,4.3 -4.1,2.9 0.7,-4.8 4.8,-5.7 7.3,-5.4 1.5,0.3 2.1,1.1 1.6,1.2"
     id="path9"
     style="fill:#ffffff" />
</svg>
